<?xml version="1.0" encoding="utf-8"?>
<!-- Generator: Adobe Illustrator 22.1.0, SVG Export Plug-In . SVG Version: 6.00 Build 0)  -->
<svg version="1.1" id="Capa_1" xmlns="http://www.w3.org/2000/svg" xmlns:xlink="http://www.w3.org/1999/xlink" x="0px" y="0px"
	 viewBox="0 0 750 750" style="enable-background:new 0 0 750 750;" xml:space="preserve">
<style type="text/css">
	.st0{fill:#4C4F57;}
	.st1{fill:#FAAE17;}
	.st2{opacity:0.2;}
</style>
<g>
	<polygon class="st0" points="337.9,583.2 162,524.5 51,487.4 88.1,376.4 180.8,98.8 291.8,135.9 199.1,413.5 347.2,462.9 	"/>
	<polygon class="st0" points="402.8,296.3 550.9,345.8 458.2,623.4 569.2,660.5 661.9,382.9 699,271.8 588,234.8 412.1,176 	"/>
	<polygon class="st1" points="350.5,83.4 248.5,388.8 387.3,435.2 402.6,666.6 501.5,370.4 362.7,324.1 	"/>
	<g id="Sombra" class="st2">
		<path d="M337.9,583.2l9.3-120.3l-59.8-20c-94.5,5.6-174.1-1.8-218.9-7.9L51,487.4l111,37.1L337.9,583.2z"/>
		<path d="M402.6,666.6l85.5-256.1c-36.1,10-72,17.4-106.9,22.7l6.1,2L402.6,666.6z"/>
		<path d="M661.9,382.9l18.7-56c-47.2,29.7-96.8,52.3-146.6,69.4l-75.9,227.1l111,37.1L661.9,382.9z"/>
	</g>
</g>
</svg>
